<svg xmlns="http://www.w3.org/2000/svg" version="1.1" xmlns:xlink="http://www.w3.org/1999/xlink" xmlns:svgjs="http://svgjs.dev/svgjs" width="2000" height="1414" viewBox="0 0 2000 1414"><g transform="matrix(1,0,0,1,-1.2121212121212466,-0.0008164381378037433)"><svg viewBox="0 0 396 280" data-background-color="#ffffff" preserveAspectRatio="xMidYMid meet" height="1414" width="2000" xmlns="http://www.w3.org/2000/svg" xmlns:xlink="http://www.w3.org/1999/xlink"><g id="tight-bounds" transform="matrix(1,0,0,1,0.2400000000000091,0.00016167091837360203)"><svg viewBox="0 0 395.52 280" height="280" width="395.52"><g><svg viewBox="0 0 395.52 280" height="280" width="395.52"><g><svg viewBox="0 0 395.52 280" height="280" width="395.52"><g><svg viewBox="0 0 395.52 280" height="280" width="395.52"><g><svg viewBox="0 0 395.52 280" height="280" width="395.52"><g transform="matrix(1,0,0,1,142.63687724163017,74.00336708925556)"><svg viewBox="0 0 110.24624551673962 131.99326582148888" height="131.99326582148888" width="110.24624551673962"><g><svg xmlns="http://www.w3.org/2000/svg" xmlns:xlink="http://www.w3.org/1999/xlink" version="1.1" x="0" y="0" viewBox="5.999164581298828 3 79.96482849121094 95.73857879638672" enable-background="new 0 0 100 100" xml:space="preserve" height="131.99326582148888" width="110.24624551673962" class="icon-o-0" data-fill-palette-color="accent" id="o-0"><g fill="#e8b340" data-fill-palette-color="accent"><path fill="#e8b340" d="M26.66 13.266v8.338 1.6 5.134 9.941 38.55c-3.223-0.916-7.149-0.712-10.972 0.888-7.287 3.048-11.342 9.901-9.047 15.301 2.287 5.407 10.054 7.317 17.34 4.271 6.094-2.547 9.865-7.749 9.617-12.548h0.068V37.183l45.044-7.065v35.386c-3.174-0.827-7.01-0.579-10.729 0.976-7.282 3.047-11.338 9.901-9.047 15.305 2.292 5.406 10.059 7.318 17.344 4.268 5.815-2.433 9.502-7.283 9.618-11.894h0.068v-45.18V18.075v-4.17-2.884V3L26.66 13.266zM78.711 19.331L33.667 27.13v-5.022l45.044-7.063V19.331z" data-fill-palette-color="accent"></path></g></svg></g></svg></g><path d="M90.105 104.511L86.261 113.499 85.647 113.236 85.434 109.352 64.716 99.537 61.697 102.212 61.083 101.95 64.747 93.384 87.314 93.325 71.756 76.993 75.271 68.775 75.885 69.038 75.802 72.882 97.412 81.344 100.2 79.209 100.814 79.472 96.312 89.999 95.698 89.736 95.435 86.069 76.681 78.503 93.797 96.412 92.938 98.418 68.359 98.494 86.54 106.866 89.491 104.248ZM118.233 61.189V61.189C116.618 62.823 114.912 63.991 113.117 64.692 111.322 65.393 109.453 65.493 107.51 64.992 105.572 64.487 103.59 63.233 101.563 61.229V61.229L91.684 51.465 87.978 52.761 87.503 52.292 96.147 43.547 96.622 44.016 95.396 47.709 105.091 57.291C106.726 58.907 108.282 59.931 109.759 60.364 111.232 60.802 112.599 60.789 113.86 60.326 115.125 59.868 116.291 59.1 117.355 58.023V58.023C118.219 57.149 118.836 56.157 119.205 55.046 119.575 53.935 119.582 52.751 119.227 51.495 118.877 50.242 118.035 48.958 116.703 47.641V47.641L105.903 36.966 101.896 38.68 101.422 38.211 108.77 30.777 109.245 31.246 107.991 34.91 117.898 44.703C119.925 46.706 121.211 48.665 121.758 50.578 122.305 52.491 122.245 54.342 121.579 56.131 120.918 57.915 119.803 59.601 118.233 61.189ZM145.967 40.728V40.728C144.386 41.561 142.926 42.132 141.587 42.44 140.25 42.754 138.844 42.921 137.367 42.941V42.941L133.73 36.94 134.4 36.587 138.915 39.658C141.114 40.113 143.055 39.898 144.735 39.011V39.011C146.122 38.28 147.056 37.352 147.537 36.228 148.018 35.103 147.925 33.909 147.259 32.646V32.646C146.763 31.705 146.145 31.059 145.403 30.707 144.667 30.351 143.726 30.168 142.579 30.157 141.437 30.143 139.978 30.195 138.201 30.314V30.314C136.03 30.384 134.216 30.177 132.758 29.691 131.304 29.211 130.14 28.143 129.266 26.486V26.486C128.77 25.545 128.528 24.517 128.54 23.399 128.554 22.287 128.773 21.192 129.195 20.113 129.627 19.037 130.225 18.042 130.99 17.128 131.758 16.22 132.662 15.492 133.702 14.944V14.944C134.942 14.29 136.174 13.821 137.398 13.536 138.625 13.257 139.871 13.114 141.137 13.108V13.108L144.639 18.853 144.005 19.188 139.588 16.301C138.583 16.133 137.701 16.076 136.941 16.131 136.178 16.18 135.4 16.414 134.607 16.832V16.832C133.567 17.38 132.889 18.181 132.573 19.234 132.257 20.287 132.379 21.345 132.94 22.408V22.408C133.529 23.525 134.376 24.227 135.481 24.515 136.578 24.801 138.209 24.895 140.373 24.798V24.798C142.249 24.695 143.845 24.724 145.162 24.886 146.479 25.048 147.594 25.425 148.507 26.018 149.42 26.61 150.202 27.523 150.852 28.757V28.757C151.481 29.95 151.78 31.129 151.749 32.295 151.715 33.469 151.437 34.596 150.917 35.674 150.399 36.757 149.704 37.732 148.831 38.598 147.962 39.469 147.007 40.179 145.967 40.728ZM177.534 29.162L165.672 32.207 165.506 31.56 168.446 29.026 162.751 6.837 158.954 6.032 158.788 5.385 170.649 2.34 170.815 2.987 167.876 5.521 173.571 27.71 177.368 28.516ZM203.522 28.523V28.523C200.613 28.503 198.092 27.898 195.962 26.708 193.831 25.518 192.184 23.892 191.023 21.831 189.861 19.764 189.289 17.432 189.307 14.834V14.834C189.321 12.795 189.739 10.875 190.562 9.073 191.384 7.272 192.501 5.692 193.912 4.333 195.317 2.974 196.918 1.909 198.717 1.137 200.51 0.366 202.399-0.013 204.385 0V0C205.813 0.01 207.025 0.108 208.02 0.294 209.009 0.487 209.887 0.732 210.656 1.03 211.424 1.327 212.199 1.675 212.98 2.072V2.072L213.297 9.707 212.549 9.702 209.232 3.81C208.365 3.213 207.585 2.779 206.889 2.509 206.193 2.238 205.384 2.1 204.46 2.093V2.093C202.64 2.081 200.999 2.575 199.538 3.574 198.076 4.574 196.92 5.978 196.071 7.786 195.222 9.6 194.789 11.696 194.772 14.075V14.075C194.755 16.619 195.145 18.804 195.943 20.629 196.741 22.448 197.828 23.854 199.203 24.847 200.584 25.833 202.126 26.332 203.826 26.343V26.343C205.088 26.352 206.176 26.193 207.088 25.867 208 25.535 208.85 25.135 209.637 24.669V24.669L212.901 19.53 213.608 19.534 213.023 26.446C211.843 27.082 210.501 27.591 208.997 27.973 207.499 28.355 205.675 28.538 203.522 28.523ZM252.983 42.287L242.396 36.455 242.718 35.87 246.639 36.062 257.693 15.997 255.436 12.785 255.758 12.2 266.344 18.033 266.022 18.617 262.284 18.526 257.524 27.167 268.661 33.302 273.421 24.661 271.346 21.55 271.668 20.966 282.22 26.779 281.898 27.363 278.046 27.21 266.992 47.275 269.18 50.448 268.858 51.033 258.306 45.22 258.629 44.635 262.367 44.726 267.55 35.318 256.413 29.183 251.23 38.591 253.305 41.702ZM286.198 69.97V69.97C284.689 68.236 283.652 66.448 283.087 64.606 282.522 62.764 282.562 60.892 283.207 58.992 283.856 57.097 285.255 55.214 287.404 53.343V53.343L297.881 44.222 296.865 40.43 297.368 39.991 305.442 49.265 304.939 49.703 301.348 48.205 291.068 57.156C289.334 58.665 288.196 60.14 287.654 61.581 287.107 63.017 287.018 64.381 287.385 65.673 287.747 66.969 288.426 68.189 289.42 69.331V69.331C290.227 70.258 291.171 70.947 292.251 71.398 293.331 71.85 294.511 71.946 295.791 71.686 297.065 71.43 298.409 70.687 299.822 69.457V69.457L311.275 59.486 309.866 55.362 310.369 54.924 317.233 62.808 316.729 63.246 313.169 61.721 302.663 70.868C300.513 72.74 298.464 73.876 296.515 74.278 294.566 74.68 292.725 74.482 290.991 73.684 289.261 72.892 287.664 71.653 286.198 69.97ZM306.167 102.767L301.168 90.493 301.786 90.241 304.713 92.858 325.929 84.217 326.195 80.3 326.814 80.048 331.452 91.436C332.178 93.22 332.617 94.914 332.768 96.517 332.922 98.111 332.744 99.488 332.235 100.65 331.725 101.811 330.824 102.655 329.532 103.182V103.182C328.21 103.72 326.805 103.74 325.318 103.241 323.83 102.742 322.495 101.708 321.311 100.139V100.139C321.958 102.68 322.008 104.872 321.461 106.716 320.911 108.554 319.766 109.828 318.025 110.537V110.537C316.603 111.116 315.139 111.167 313.633 110.69 312.129 110.22 310.718 109.302 309.402 107.937 308.09 106.564 307.011 104.84 306.167 102.767ZM328.691 90.785V90.785L327.98 89.041 318.696 92.822 319.505 94.807C320.221 96.566 321.185 97.78 322.397 98.448 323.603 99.119 324.92 99.164 326.347 98.583V98.583C329.503 97.297 330.284 94.698 328.691 90.785ZM318.009 96.814V96.814L316.712 93.63 306.616 97.742 308.026 101.203C308.815 103.141 309.911 104.484 311.313 105.233 312.719 105.973 314.173 106.037 315.674 105.426V105.426C317.384 104.729 318.417 103.645 318.772 102.174 319.118 100.699 318.863 98.912 318.009 96.814ZM72.577 191.67L68.696 182.623 69.319 182.356 72.295 184.896 93.853 176.613 93.997 172.55 94.62 172.283 98.32 180.91 82.673 197.412 105.403 197.421 108.95 205.69 108.327 205.957 105.594 203.226 84.394 213.101 84.014 216.614 83.391 216.881 78.843 206.277 79.465 206.01 82.322 208.373 100.875 199.959 75.92 199.995 75.052 197.971 92.084 179.996 73.342 187.439 73.2 191.403ZM104.202 241.556V241.556C102.575 239.914 101.415 238.188 100.723 236.376 100.031 234.555 99.95 232.671 100.48 230.724 101.005 228.772 102.289 226.784 104.332 224.759V224.759L114.268 214.91 113.002 211.17 113.483 210.693 122.203 219.49 121.722 219.967 118.014 218.689 108.255 228.363C106.613 229.99 105.568 231.545 105.12 233.027 104.663 234.51 104.661 235.891 105.116 237.171 105.566 238.445 106.327 239.623 107.398 240.704V240.704C108.272 241.586 109.268 242.217 110.384 242.598 111.495 242.983 112.686 243.005 113.956 242.663 115.221 242.316 116.523 241.479 117.863 240.151V240.151L128.726 229.383 127.046 225.338 127.527 224.861 134.935 232.334 134.454 232.811 130.781 231.513 120.817 241.39C118.774 243.415 116.786 244.693 114.854 245.225 112.916 245.752 111.051 245.673 109.26 244.989 107.473 244.3 105.787 243.156 104.202 241.556ZM136.834 265.585V265.585C135.234 264.744 133.926 263.857 132.908 262.924 131.884 261.988 130.943 260.916 130.085 259.707V259.707L133.001 253.259 133.671 253.611 133.693 259.116C134.572 261.199 135.859 262.686 137.552 263.576V263.576C138.952 264.311 140.254 264.561 141.459 264.324 142.668 264.081 143.606 263.324 144.273 262.054V262.054C144.774 261.101 144.96 260.22 144.83 259.409 144.704 258.592 144.32 257.703 143.677 256.742 143.03 255.787 142.156 254.603 141.052 253.19V253.19C139.751 251.426 138.885 249.803 138.454 248.324 138.027 246.838 138.252 245.261 139.13 243.591V243.591C139.627 242.644 140.344 241.858 141.281 241.232 142.209 240.609 143.245 240.166 144.388 239.904 145.522 239.645 146.689 239.575 147.887 239.694 149.079 239.811 150.201 240.145 151.254 240.699V240.699C152.5 241.354 153.589 242.11 154.519 242.967 155.459 243.821 156.291 244.772 157.015 245.821V245.821L154.238 252.005 153.603 251.671 153.479 246.36C153.046 245.427 152.589 244.661 152.108 244.063 151.63 243.459 150.991 242.947 150.192 242.527V242.527C149.145 241.977 148.094 241.871 147.038 242.209 145.991 242.544 145.185 243.25 144.619 244.326V244.326C144.029 245.449 143.928 246.548 144.316 247.623 144.701 248.703 145.551 250.114 146.865 251.855V251.855C148.02 253.355 148.906 254.696 149.524 255.876 150.145 257.065 150.468 258.207 150.493 259.301 150.524 260.398 150.212 261.57 149.557 262.816V262.816C148.927 264.016 148.116 264.937 147.126 265.579 146.135 266.222 145.043 266.635 143.851 266.819 142.653 267 141.446 266.977 140.229 266.75 139.012 266.523 137.881 266.135 136.834 265.585ZM172.92 277.961L160.969 274.901 161.137 274.245 164.965 273.435 170.69 251.079 167.722 248.529 167.89 247.873 179.841 250.933 179.673 251.589 175.845 252.399 170.12 274.755 173.088 277.305ZM203.704 279.999V279.999C200.768 280.02 198.22 279.446 196.059 278.278 193.892 277.111 192.211 275.495 191.014 273.43 189.817 271.366 189.21 269.025 189.192 266.408V266.408C189.178 264.349 189.573 262.409 190.377 260.59 191.182 258.764 192.284 257.156 193.682 255.765 195.081 254.373 196.681 253.279 198.483 252.483 200.278 251.68 202.175 251.272 204.174 251.258V251.258C205.616 251.248 206.835 251.329 207.833 251.502 208.837 251.681 209.729 251.914 210.508 252.201 211.281 252.495 212.064 252.835 212.857 253.221V253.221L213.289 260.911 212.531 260.916 209.113 255.031C208.232 254.439 207.438 254.012 206.732 253.752 206.026 253.491 205.208 253.363 204.278 253.37V253.37C202.445 253.382 200.801 253.902 199.347 254.928 197.886 255.948 196.739 257.378 195.908 259.217 195.077 261.056 194.67 263.171 194.687 265.563V265.563C194.704 268.127 195.128 270.323 195.957 272.151 196.787 273.979 197.903 275.379 199.305 276.353 200.706 277.333 202.264 277.817 203.978 277.805V277.805C205.247 277.797 206.338 277.62 207.253 277.275 208.167 276.93 209.018 276.515 209.805 276.031V276.031L213.018 270.808 213.735 270.803 213.235 277.782C212.057 278.441 210.716 278.971 209.21 279.374 207.705 279.776 205.87 279.985 203.704 279.999ZM262.054 263.104L251.391 268.962 251.065 268.368 253.339 265.141 242.227 244.914 238.283 245.103 237.957 244.509 248.62 238.651 248.947 239.245 246.856 242.371 251.639 251.079 262.87 244.909 258.087 236.201 254.318 236.294 253.991 235.7 264.629 229.856 264.955 230.45 262.75 233.639 273.862 253.866 277.736 253.716 278.063 254.309 267.425 260.153 267.099 259.559 269.199 256.428 263.988 246.943 252.757 253.113 257.968 262.598 261.728 262.51ZM301.165 231.791V231.791C299.645 233.533 298.007 234.814 296.25 235.635 294.484 236.457 292.611 236.674 290.631 236.287 288.646 235.904 286.57 234.767 284.402 232.876V232.876L273.86 223.679 270.222 225.212 269.711 224.767 277.853 215.434 278.364 215.879 277.358 219.67 287.713 228.703C289.455 230.223 291.081 231.152 292.592 231.492 294.104 231.841 295.481 231.742 296.724 231.196 297.964 230.655 299.083 229.811 300.083 228.665V228.665C300.9 227.729 301.458 226.691 301.756 225.55 302.06 224.413 301.996 223.224 301.563 221.982 301.125 220.746 300.196 219.507 298.774 218.267V218.267L287.249 208.212 283.336 210.18 282.825 209.735 289.743 201.806 290.254 202.251 289.224 206.008 299.796 215.231C301.964 217.122 303.383 219.012 304.053 220.902 304.719 222.796 304.775 224.661 304.222 226.497 303.664 228.329 302.645 230.094 301.165 231.791ZM323.829 193.116L318.78 205.477 318.153 205.22 317.889 201.281 296.525 192.555 293.578 195.183 292.951 194.927 297.634 183.461C298.368 181.665 299.244 180.135 300.262 178.872 301.278 177.615 302.377 176.751 303.56 176.28 304.745 175.802 305.989 175.83 307.293 176.362V176.362C308.622 176.905 309.648 177.88 310.371 179.288 311.089 180.693 311.32 182.377 311.064 184.339V184.339C312.392 182.054 313.903 180.444 315.599 179.507 317.288 178.568 319.01 178.457 320.762 179.173V179.173C322.195 179.758 323.286 180.749 324.036 182.146 324.79 183.552 325.157 185.209 325.138 187.117 325.117 189.031 324.68 191.031 323.829 193.116ZM299.167 185.874V185.874L298.448 187.635 307.792 191.452 308.61 189.451C309.333 187.679 309.497 186.128 309.101 184.797 308.701 183.456 307.785 182.494 306.352 181.909V181.909C303.172 180.61 300.777 181.932 299.167 185.874ZM311.105 189.06V189.06L309.794 192.27 319.969 196.426 321.393 192.939C322.192 190.983 322.346 189.245 321.855 187.724 321.366 186.197 320.366 185.125 318.853 184.507V184.507C317.131 183.803 315.623 183.858 314.329 184.672 313.044 185.482 311.969 186.944 311.105 189.06ZM61.852 144.288C61.852 138.358 66.66 133.55 72.59 133.55 78.52 133.55 83.328 138.358 83.328 144.288 83.328 150.219 78.52 155.026 72.59 155.026 66.66 155.026 61.852 150.219 61.852 144.288ZM312.961 144.288C312.961 138.358 317.769 133.55 323.699 133.55 329.63 133.55 334.437 138.358 334.437 144.288 334.437 150.219 329.63 155.026 323.699 155.026 317.769 155.026 312.961 150.219 312.961 144.288Z" fill="#e8b340" data-fill-palette-color="primary"></path></svg></g></svg></g></svg></g></svg></g><defs></defs></svg><rect width="395.52" height="280" fill="none" stroke="none" visibility="hidden"></rect></g></svg></g></svg>